<?xml version="1.0" encoding="utf-8"?>
<!-- Generator: Adobe Illustrator 15.0.0, SVG Export Plug-In . SVG Version: 6.00 Build 0)  -->
<!DOCTYPE svg PUBLIC "-//W3C//DTD SVG 1.1//EN" "http://www.w3.org/Graphics/SVG/1.1/DTD/svg11.dtd">
<svg version="1.1" id="Layer_1" xmlns="http://www.w3.org/2000/svg" xmlns:xlink="http://www.w3.org/1999/xlink" x="0px" y="0px"
	 width="27.261px" height="100.167px" viewBox="0 0 27.261 100.167" enable-background="new 0 0 27.261 100.167"
	 xml:space="preserve">
<text transform="matrix(1 0 0 1 -76.481 19.0806)"><tspan x="0" y="0" fill="#0000FF" font-family="'Helvetica-Bold'" font-size="14">I</tspan><tspan x="-3.11" y="17" fill="#0000FF" font-family="'Helvetica-Bold'" font-size="14">N</tspan><tspan x="-2.724" y="34" fill="#0000FF" font-family="'Helvetica-Bold'" font-size="14">S</tspan><tspan x="-2.331" y="51" fill="#0000FF" font-family="'Helvetica-Bold'" font-size="14">T</tspan><tspan x="-3.11" y="68" fill="#0000FF" font-family="'Helvetica-Bold'" font-size="14">A</tspan></text>
<rect x="-3.703" y="142.167" fill="none" width="34.667" height="95.333"/>
<rect x="-117.036" y="40.167" fill="none" width="26.667" height="107.333"/>
<g>
	<rect x="-87.87" y="1" fill="none" stroke="#0000FF" stroke-width="2" stroke-miterlimit="10" width="26" height="91.333"/>
	<rect x="-80.422" y="5.667" fill="none" width="13.333" height="82"/>
</g>
<g>
	<text transform="matrix(0.9039 0 0 1 9.4102 21.3335)"><tspan x="0" y="0" fill="#0000FF" font-family="'Helvetica-Bold'" font-size="14">E</tspan><tspan x="-1.162" y="17" fill="#0000FF" font-family="'Helvetica-Bold'" font-size="14">M</tspan><tspan x="-0.386" y="34" fill="#0000FF" font-family="'Helvetica-Bold'" font-size="14">A</tspan><tspan x="2.724" y="51" fill="#0000FF" font-family="'Helvetica-Bold'" font-size="14">I</tspan><tspan x="0.393" y="68" fill="#0000FF" font-family="'Helvetica-Bold'" font-size="14">L</tspan></text>
	<rect x="1" y="1" fill="none" stroke="#0000FF" stroke-width="2" stroke-miterlimit="10" width="25.261" height="98.167"/>
</g>
<g>
	<text transform="matrix(1 0 0 1 73.686 21.3335)"><tspan x="0" y="0" fill="#0000FF" font-family="'Helvetica-Bold'" font-size="14">I</tspan><tspan x="-3.11" y="17" fill="#0000FF" font-family="'Helvetica-Bold'" font-size="14">N</tspan><tspan x="-2.724" y="34" fill="#0000FF" font-family="'Helvetica-Bold'" font-size="14">S</tspan><tspan x="-2.331" y="51" fill="#0000FF" font-family="'Helvetica-Bold'" font-size="14">T</tspan><tspan x="-3.11" y="68" fill="#0000FF" font-family="'Helvetica-Bold'" font-size="14">A</tspan></text>
	<rect x="62.631" y="1" fill="none" stroke="#0000FF" stroke-width="2" stroke-miterlimit="10" width="26" height="97.167"/>
</g>
</svg>
